<?xml version="1.0" encoding="UTF-8" standalone="no"?>
<!DOCTYPE svg PUBLIC "-//W3C//DTD SVG 1.1//EN" "http://www.w3.org/Graphics/SVG/1.1/DTD/svg11.dtd">
<!-- Generated by Microsoft Visio, SVG Export IRA_TRP_OM_EU_diagram.svg Page-1 -->
<svg xmlns="http://www.w3.org/2000/svg" xmlns:xlink="http://www.w3.org/1999/xlink" xmlns:ev="http://www.w3.org/2001/xml-events"
		width="7.93411in" height="5.81569in" viewBox="0 0 571.256 418.73" xml:space="preserve" color-interpolation-filters="sRGB"
		class="st19">
	<style type="text/css">
	<![CDATA[
		.st1 {fill:#c5e0b3;stroke:#c8c8c8;stroke-width:0.25}
		.st2 {fill:#f7cbac;stroke:#c8c8c8;stroke-width:0.25}
		.st3 {fill:#375623}
		.st4 {stroke:#c7c8c8;stroke-width:0.25}
		.st5 {fill:#375623;stroke:#c7c8c8;stroke-width:0.25}
		.st6 {fill:#ffffff;stroke:#000000;stroke-linecap:round;stroke-linejoin:round;stroke-width:0.24}
		.st7 {fill:#ffff00;stroke:#000000;stroke-linecap:round;stroke-linejoin:round;stroke-width:0.24}
		.st8 {fill:none;stroke:none;stroke-linecap:round;stroke-linejoin:round;stroke-width:0.75;visibility:hidden}
		.st9 {fill:#7f7f7f;stroke:#c7c8c8;stroke-width:0.25}
		.st10 {fill:#c55a11;stroke:#c7c8c8;stroke-width:0.25}
		.st11 {fill:#feffff;font-family:Calibri;font-size:1.5em}
		.st12 {font-size:1em}
		.st13 {fill:#538135;stroke:#c7c8c8;stroke-width:0.25}
		.st14 {fill:#4672c4;stroke:#c7c8c8;stroke-width:0.25}
		.st15 {fill:none;stroke:none;stroke-width:0.25}
		.st16 {fill:#000000;font-family:Calibri;font-size:1.00001em;font-weight:bold}
		.st17 {font-size:0.83333em;font-style:italic;font-weight:normal}
		.st18 {fill:#b5c6e7;stroke:#c8c8c8;stroke-width:0.25}
		.st19 {fill:none;fill-rule:evenodd;font-size:12px;overflow:visible;stroke-linecap:square;stroke-miterlimit:3}
	]]>
	</style>

	<g>
		<title>Page-1</title>
		<g id="shape28-1" transform="translate(-33.1095,270.593) rotate(-90)">
			<title>Arrow box.28</title>
			<path d="M45.13 312.43 L45.13 404.56 L30.96 404.56 L59.3 418.73 L87.65 404.56 L73.48 404.56 L73.48 312.43 L118.61 312.43
						 L118.61 33.36 L0 33.36 L0 312.43 L45.13 312.43 Z" class="st1"/>
		</g>
		<g id="shape27-3" transform="translate(-33.1095,418.48) rotate(-90)">
			<title>Arrow box</title>
			<path d="M51.1 312.43 L51.1 404.56 L36.92 404.56 L65.27 418.73 L93.62 404.56 L79.44 404.56 L79.44 312.43 L130.54 312.43
						 L130.54 33.36 L0 33.36 L0 312.43 L51.1 312.43 Z" class="st2"/>
		</g>
		<g id="group22-5" transform="translate(492.128,-180.026)">
			<title>Auditing</title>
			<g id="shape23-6" transform="translate(0,-15.4301)">
				<title>Sheet.23</title>
				<path d="M33.19 387.66 A23.1746 23.1746 25.97 0 1 33.19 388.76 A15.4666 15.4666 88.81 0 1 47.65 389.29 L51.81 381.78
							 L47.41 379.24 C47.44 378.9 47.46 378.55 47.46 378.19 C47.46 377.84 47.44 377.49 47.41 377.14 L51.81
							 374.6 L47.66 367.41 L43.25 369.95 C42.69 369.54 42.08 369.19 41.44 368.9 L41.44 363.82 L33.13 363.82
							 L33.13 368.9 C32.48 369.19 31.88 369.54 31.31 369.95 L26.91 367.41 L22.76 374.6 L27.16 377.14 C27.12
							 377.49 27.1 377.84 27.1 378.19 C27.1 378.55 27.12 378.9 27.16 379.24 L22.76 381.78 L26.91 388.98 L31.32
							 386.43 A5.83576 5.83576 -180 0 0 33.19 387.66 ZM37.28 382.23 C35.05 382.23 33.24 380.42 33.24 378.19
							 C33.24 375.96 35.05 374.15 37.28 374.15 C39.51 374.15 41.32 375.96 41.32 378.19 C41.32 380.42 39.51
							 382.23 37.28 382.23 ZM30.81 390.12 L29.87 388.71 L24.43 391.76 C23.76 391.28 23.04 390.86 22.27 390.51
							 L22.27 384.46 L12.36 384.46 L12.36 390.51 C11.6 390.86 10.87 391.28 10.2 391.76 L4.95 388.73 L0 397.31
							 L5.25 400.34 C5.2 400.75 5.18 401.17 5.18 401.59 C5.18 402.02 5.2 402.43 5.25 402.84 L0 405.87 L4.95
							 414.45 L10.2 411.42 C10.87 411.91 11.6 412.33 12.36 412.67 L12.36 418.73 L22.27 418.73 L22.27 412.67
							 C23.03 412.33 23.76 411.91 24.43 411.42 L29.78 414.3 A15.456 15.456 84.39 0 1 30.81 390.12 L30.81 390.12
							 ZM17.32 406.61 C14.56 406.61 12.32 404.37 12.32 401.61 C12.32 398.85 14.56 396.61 17.32 396.61 C20.07
							 396.61 22.31 398.85 22.31 401.61 C22.31 404.37 20.07 406.61 17.32 406.61 ZM47.25 393.21 A11.9509 11.9509
							 -180 0 0 31.89 411.51 L37.63 408.92 L34.26 401.37 L37.93 397.34 L45.25 399.65 L47.25 393.21 Z"
						class="st3"/>
				<path d="M33.19 387.66 A23.1746 23.1746 25.97 0 1 33.19 388.76 A15.4666 15.4666 88.81 0 1 47.65 389.29 L51.81 381.78
							 L47.41 379.24 C47.44 378.9 47.46 378.55 47.46 378.19 C47.46 377.84 47.44 377.49 47.41 377.14 L51.81
							 374.6 L47.66 367.41 L43.25 369.95 C42.69 369.54 42.08 369.19 41.44 368.9 L41.44 363.82 L33.13 363.82
							 L33.13 368.9 C32.48 369.19 31.88 369.54 31.31 369.95 L26.91 367.41 L22.76 374.6 L27.16 377.14 C27.12
							 377.49 27.1 377.84 27.1 378.19 C27.1 378.55 27.12 378.9 27.16 379.24 L22.76 381.78 L26.91 388.98 L31.32
							 386.43 A5.83576 5.83576 -180 0 0 33.19 387.66M37.28 382.23 C35.05 382.23 33.24 380.42 33.24 378.19 C33.24
							 375.96 35.05 374.15 37.28 374.15 C39.51 374.15 41.32 375.96 41.32 378.19 C41.32 380.42 39.51 382.23
							 37.28 382.23M30.81 390.12 L29.87 388.71 L24.43 391.76 C23.76 391.28 23.04 390.86 22.27 390.51 L22.27
							 384.46 L12.36 384.46 L12.36 390.51 C11.6 390.86 10.87 391.28 10.2 391.76 L4.95 388.73 L0 397.31 L5.25
							 400.34 C5.2 400.75 5.18 401.17 5.18 401.59 C5.18 402.02 5.2 402.43 5.25 402.84 L0 405.87 L4.95 414.45
							 L10.2 411.42 C10.87 411.91 11.6 412.33 12.36 412.67 L12.36 418.73 L22.27 418.73 L22.27 412.67 C23.03
							 412.33 23.76 411.91 24.43 411.42 L29.78 414.3 A15.456 15.456 84.39 0 1 30.81 390.12M17.32 406.61 C14.56
							 406.61 12.32 404.37 12.32 401.61 C12.32 398.85 14.56 396.61 17.32 396.61 C20.07 396.61 22.31 398.85
							 22.31 401.61 C22.31 404.37 20.07 406.61 17.32 406.61M47.25 393.21 A11.9509 11.9509 -180 0 0 31.89 411.51
							 L37.63 408.92 L34.26 401.37 L37.93 397.34 L45.25 399.65 L47.25 393.21" class="st4"/>
			</g>
			<g id="shape24-9" transform="translate(24.4388,-0.524295)">
				<title>Sheet.24</title>
				<path d="M19.12 402.68 L30.41 391.4 C30.7 390.21 30.85 388.97 30.85 387.7 C30.85 379.18 23.95 372.27 15.43 372.27
							 C6.91 372.27 0 379.18 0 387.7 C0 396.22 6.91 403.13 15.43 403.13 C16.7 403.13 17.94 402.97 19.12 402.68
							 ZM23.88 396.15 C19.22 400.81 11.64 400.81 6.98 396.15 C2.31 391.49 2.31 383.91 6.97 379.25 C11.63 374.59
							 19.22 374.59 23.88 379.25 C28.54 383.91 28.54 391.49 23.88 396.15 ZM30.41 391.4 L19.05 402.75 C20.74
							 404.44 21.43 405.73 24.24 402.9 C28.43 398.68 25.32 402.27 26.9 403.87 C39.87 417.01 42.34 420.92 45.64
							 417.62 L45.65 417.62 C45.65 417.62 45.65 417.62 45.65 417.61 C45.66 417.61 45.66 417.6 45.66 417.6 C48.36
							 414.91 44 411.63 31.6 399.17 C30.01 397.57 26.41 400.69 30.63 396.5 C33.46 393.7 32.17 393.01 30.48
							 391.32 L30.41 391.4 Z" class="st5"/>
			</g>
		</g>
		<g id="group18-11" transform="translate(498.226,-322.715)">
			<title>Lightning</title>
			<g id="shape19-12" transform="translate(1.2704,-33.4022)">
				<title>Sheet.19</title>
				<path d="M2.8 418.73 A5.56032 4.76599 0 0 1 7.4 410.09 A6.17126 5.28965 0 0 1 13.52 402.98 A8.00231 6.85912 0 0 1
							 28.83 401.67 A6.81462 5.84111 0 0 1 37.24 407.47 A4.17618 3.57959 0 0 1 43.37 411.62 A6.41521 5.49875
							 0 0 1 51.79 418.73 L2.8 418.73 Z" class="st6"/>
			</g>
			<g id="shape20-14" transform="translate(10.623,0)">
				<title>Sheet.20</title>
				<path d="M10.77 385.33 L29.6 385.33 L21.95 389.34 L31.95 388 L19.01 397.85 L27.91 396.02 L-0 418.73 L11.95 404.03
							 L7.24 406.7 L13.12 397.91 L6.06 400.02 L14.3 389.34 L3.12 392.51 L10.77 385.33 Z" class="st7"/>
			</g>
			<g id="shape21-16" transform="translate(0,25.2346)">
				<title>Sheet.21</title>
				<rect x="0" y="393.495" width="54.7795" height="25.2346" class="st8"/>
			</g>
		</g>
		<g id="group16-18" transform="translate(486.459,-68.6249)">
			<title>Gear</title>
			<g id="shape17-19">
				<title>Sheet.17</title>
				<path d="M22.9 418.73 C21.64 418.73 20.38 418.73 19.13 418.73 C18.69 418.48 18.49 418.12 18.41 417.62 C18.18 416.05
							 17.9 414.49 17.66 412.93 C17.61 412.61 17.51 412.43 17.17 412.35 C15.81 412.03 14.55 411.48 13.36 410.77
							 C13.11 410.62 12.95 410.62 12.71 410.79 C11.39 411.76 10.05 412.71 8.72 413.67 C8.08 414.12 7.67 414.09
							 7.13 413.55 C6.5 412.92 5.87 412.29 5.24 411.66 C4.62 411.05 4.59 410.68 5.09 409.98 C6.04 408.66 6.98
							 407.34 7.94 406.02 C8.09 405.81 8.13 405.66 7.98 405.41 C7.24 404.19 6.7 402.88 6.36 401.49 C6.29 401.23
							 6.17 401.14 5.93 401.1 C4.38 400.85 2.83 400.58 1.28 400.35 C0.73 400.27 0.29 400.09 0 399.6 C0 398.35
							 0 397.09 0 395.83 C0.25 395.38 0.64 395.18 1.15 395.1 C2.7 394.87 4.25 394.59 5.8 394.36 C6.15 394.31
							 6.31 394.18 6.39 393.83 C6.71 392.49 7.26 391.24 7.96 390.06 C8.11 389.82 8.11 389.66 7.94 389.42 C6.96
							 388.08 6 386.74 5.04 385.39 C4.62 384.8 4.65 384.37 5.16 383.86 C5.81 383.2 6.47 382.54 7.13 381.89
							 C7.68 381.34 8.08 381.31 8.72 381.77 C10.06 382.73 11.41 383.7 12.75 384.67 C12.93 384.8 13.07 384.84
							 13.29 384.7 C14.52 383.95 15.84 383.41 17.24 383.06 C17.51 383 17.59 382.87 17.63 382.63 C17.88 381.08
							 18.15 379.53 18.38 377.98 C18.46 377.44 18.63 376.99 19.13 376.7 C20.38 376.7 21.64 376.7 22.9 376.7
							 C23.34 376.95 23.54 377.32 23.62 377.81 C23.86 379.38 24.14 380.94 24.37 382.5 C24.43 382.85 24.55 383.01
							 24.9 383.09 C26.25 383.43 27.52 383.97 28.7 384.69 C28.92 384.82 29.07 384.82 29.28 384.66 C30.62 383.69
							 31.96 382.73 33.31 381.77 C33.95 381.31 34.35 381.34 34.9 381.89 C35.53 382.51 36.16 383.14 36.79 383.77
							 C37.4 384.39 37.44 384.76 36.94 385.45 C35.98 386.79 35.03 388.12 34.07 389.45 C33.93 389.64 33.89 389.77
							 34.03 389.99 C34.78 391.22 35.32 392.54 35.67 393.95 C35.73 394.21 35.87 394.29 36.1 394.33 C37.65 394.58
							 39.2 394.85 40.75 395.08 C41.3 395.16 41.74 395.34 42.03 395.83 C42.03 397.06 42.03 398.29 42.03 399.52
							 C41.84 400 41.48 400.23 40.97 400.31 C39.37 400.55 37.77 400.83 36.16 401.09 C35.89 401.13 35.74 401.21
							 35.67 401.51 C35.32 402.9 34.78 404.21 34.03 405.43 C33.9 405.64 33.92 405.78 34.06 405.97 C35.05 407.33
							 36.03 408.7 37 410.07 C37.4 410.63 37.36 411.08 36.88 411.57 C36.22 412.23 35.57 412.88 34.91 413.54
							 C34.35 414.09 33.95 414.13 33.32 413.67 C31.97 412.71 30.63 411.75 29.29 410.77 C29.08 410.62 28.94
							 410.61 28.71 410.74 C27.49 411.49 26.18 412.02 24.79 412.37 C24.54 412.44 24.44 412.55 24.4 412.8 C24.15
							 414.36 23.88 415.93 23.64 417.49 C23.56 418.02 23.38 418.45 22.9 418.73 ZM32.32 397.72 A11.306 11.3061
							 -180 1 0 9.71 397.72 A11.306 11.3061 -180 1 0 32.32 397.72 Z" class="st9"/>
			</g>
		</g>
		<g id="shape2-21" transform="translate(386.754,-25.6126)">
			<title>Rectangle</title>
			<desc>Operation &#38; Maintenance SOP</desc>
			<rect x="0" y="333.69" width="113.386" height="85.0394" class="st10"/>
			<text x="11.35" y="360.01" class="st11">Operation &#38; <tspan x="8.35" dy="1.2em" class="st12">Maintenance </tspan><tspan
						x="41.95" dy="1.2em" class="st12">SOP</tspan></text>		</g>
		<g id="shape3-26" transform="translate(389.089,-165.853)">
			<title>Rectangle.3</title>
			<desc>IT Risk Assessment</desc>
			<rect x="0" y="333.69" width="113.386" height="85.0394" class="st13"/>
			<text x="33.44" y="370.81" class="st11">IT Risk <tspan x="13.52" dy="1.2em" class="st12">Assessment</tspan></text>		</g>
		<g id="shape4-30" transform="translate(387.144,-307.585)">
			<title>Rectangle.4</title>
			<desc>IT Recovery Plan</desc>
			<rect x="0" y="333.69" width="113.386" height="85.0394" class="st14"/>
			<text x="14.33" y="370.81" class="st11">IT Recovery <tspan x="40.94" dy="1.2em" class="st12">Plan</tspan></text>		</g>
		<g id="shape14-34" transform="translate(12.0138,-160.954)">
			<title>Sheet.14</title>
			<desc>Section 1: Risk management should be applied throughout the l...</desc>
			<rect x="0" y="325.757" width="246.047" height="92.9726" class="st15"/>
			<text x="4" y="339.84" class="st16">Section 1<tspan class="st17">: Risk management should be applied </tspan><tspan
						x="4" dy="1.26em" class="st17">throughout the lifecycle of the computerised system taking </tspan><tspan
						x="4" dy="1.2em" class="st17">into account patient safety, data integrity and product </tspan><tspan x="4"
						dy="1.2em" class="st17">quality. As part of a risk management system, decisions on </tspan><tspan x="4"
						dy="1.2em" class="st17">the extent of validation and data integrity controls should </tspan><tspan x="4"
						dy="1.2em" class="st17">be based on a justified and documented risk assessment of </tspan><tspan x="4"
						dy="1.2em" class="st17">the computerised system. </tspan></text>		</g>
		<g id="group25-44" transform="translate(504.213,-39.7858)">
			<title>Gear.25</title>
			<g id="shape26-45">
				<title>Sheet.26</title>
				<path d="M22.9 418.73 C21.64 418.73 20.38 418.73 19.13 418.73 C18.69 418.48 18.49 418.12 18.41 417.62 C18.18 416.05
							 17.9 414.49 17.66 412.93 C17.61 412.61 17.51 412.43 17.17 412.35 C15.81 412.03 14.55 411.48 13.36 410.77
							 C13.11 410.62 12.95 410.62 12.71 410.79 C11.39 411.76 10.05 412.71 8.72 413.67 C8.08 414.12 7.67 414.09
							 7.13 413.55 C6.5 412.92 5.87 412.29 5.24 411.66 C4.62 411.05 4.59 410.68 5.09 409.98 C6.04 408.66 6.98
							 407.34 7.94 406.02 C8.09 405.81 8.13 405.66 7.98 405.41 C7.24 404.19 6.7 402.88 6.36 401.49 C6.29 401.23
							 6.17 401.14 5.93 401.1 C4.38 400.85 2.83 400.58 1.28 400.35 C0.73 400.27 0.29 400.09 0 399.6 C0 398.35
							 0 397.09 0 395.83 C0.25 395.38 0.64 395.18 1.15 395.1 C2.7 394.87 4.25 394.59 5.8 394.36 C6.15 394.31
							 6.31 394.18 6.39 393.83 C6.71 392.49 7.26 391.24 7.96 390.06 C8.11 389.82 8.11 389.66 7.94 389.42 C6.96
							 388.08 6 386.74 5.04 385.39 C4.62 384.8 4.65 384.37 5.16 383.86 C5.81 383.2 6.47 382.54 7.13 381.89
							 C7.68 381.34 8.08 381.31 8.72 381.77 C10.06 382.73 11.41 383.7 12.75 384.67 C12.93 384.8 13.07 384.84
							 13.29 384.7 C14.52 383.95 15.84 383.41 17.24 383.06 C17.51 383 17.59 382.87 17.63 382.63 C17.88 381.08
							 18.15 379.53 18.38 377.98 C18.46 377.44 18.63 376.99 19.13 376.7 C20.38 376.7 21.64 376.7 22.9 376.7
							 C23.34 376.95 23.54 377.32 23.62 377.81 C23.86 379.38 24.14 380.94 24.37 382.5 C24.43 382.85 24.55 383.01
							 24.9 383.09 C26.25 383.43 27.52 383.97 28.7 384.69 C28.92 384.82 29.07 384.82 29.28 384.66 C30.62 383.69
							 31.96 382.73 33.31 381.77 C33.95 381.31 34.35 381.34 34.9 381.89 C35.53 382.51 36.16 383.14 36.79 383.77
							 C37.4 384.39 37.44 384.76 36.94 385.45 C35.98 386.79 35.03 388.12 34.07 389.45 C33.93 389.64 33.89 389.77
							 34.03 389.99 C34.78 391.22 35.32 392.54 35.67 393.95 C35.73 394.21 35.87 394.29 36.1 394.33 C37.65 394.58
							 39.2 394.85 40.75 395.08 C41.3 395.16 41.74 395.34 42.03 395.83 C42.03 397.06 42.03 398.29 42.03 399.52
							 C41.84 400 41.48 400.23 40.97 400.31 C39.37 400.55 37.77 400.83 36.16 401.09 C35.89 401.13 35.74 401.21
							 35.67 401.51 C35.32 402.9 34.78 404.21 34.03 405.43 C33.9 405.64 33.92 405.78 34.06 405.97 C35.05 407.33
							 36.03 408.7 37 410.07 C37.4 410.63 37.36 411.08 36.88 411.57 C36.22 412.23 35.57 412.88 34.91 413.54
							 C34.35 414.09 33.95 414.13 33.32 413.67 C31.97 412.71 30.63 411.75 29.29 410.77 C29.08 410.62 28.94
							 410.61 28.71 410.74 C27.49 411.49 26.18 412.02 24.79 412.37 C24.54 412.44 24.44 412.55 24.4 412.8 C24.15
							 414.36 23.88 415.93 23.64 417.49 C23.56 418.02 23.38 418.45 22.9 418.73 ZM32.32 397.72 A11.306 11.3061
							 -180 1 0 9.71 397.72 A11.306 11.3061 -180 1 0 32.32 397.72 Z" class="st9"/>
			</g>
		</g>
		<g id="shape29-47" transform="translate(-33.1095,130.793) rotate(-90)">
			<title>Arrow box.29</title>
			<path d="M51.1 312.43 L51.1 404.56 L36.92 404.56 L65.27 418.73 L93.62 404.56 L79.44 404.56 L79.44 312.43 L130.54 312.43
						 L130.54 33.36 L0 33.36 L0 312.43 L51.1 312.43 Z" class="st18"/>
		</g>
		<g id="group30-49" transform="translate(528.979,-66.5137)">
			<title>Gear.30</title>
			<g id="shape31-50">
				<title>Sheet.31</title>
				<path d="M22.9 418.73 C21.64 418.73 20.38 418.73 19.13 418.73 C18.69 418.48 18.49 418.12 18.41 417.62 C18.18 416.05
							 17.9 414.49 17.66 412.93 C17.61 412.61 17.51 412.43 17.17 412.35 C15.81 412.03 14.55 411.48 13.36 410.77
							 C13.11 410.62 12.95 410.62 12.71 410.79 C11.39 411.76 10.05 412.71 8.72 413.67 C8.08 414.12 7.67 414.09
							 7.13 413.55 C6.5 412.92 5.87 412.29 5.24 411.66 C4.62 411.05 4.59 410.68 5.09 409.98 C6.04 408.66 6.98
							 407.34 7.94 406.02 C8.09 405.81 8.13 405.66 7.98 405.41 C7.24 404.19 6.7 402.88 6.36 401.49 C6.29 401.23
							 6.17 401.14 5.93 401.1 C4.38 400.85 2.83 400.58 1.28 400.35 C0.73 400.27 0.29 400.09 0 399.6 C0 398.35
							 0 397.09 0 395.83 C0.25 395.38 0.64 395.18 1.15 395.1 C2.7 394.87 4.25 394.59 5.8 394.36 C6.15 394.31
							 6.31 394.18 6.39 393.83 C6.71 392.49 7.26 391.24 7.96 390.06 C8.11 389.82 8.11 389.66 7.94 389.42 C6.96
							 388.08 6 386.74 5.04 385.39 C4.62 384.8 4.65 384.37 5.16 383.86 C5.81 383.2 6.47 382.54 7.13 381.89
							 C7.68 381.34 8.08 381.31 8.72 381.77 C10.06 382.73 11.41 383.7 12.75 384.67 C12.93 384.8 13.07 384.84
							 13.29 384.7 C14.52 383.95 15.84 383.41 17.24 383.06 C17.51 383 17.59 382.87 17.63 382.63 C17.88 381.08
							 18.15 379.53 18.38 377.98 C18.46 377.44 18.63 376.99 19.13 376.7 C20.38 376.7 21.64 376.7 22.9 376.7
							 C23.34 376.95 23.54 377.32 23.62 377.81 C23.86 379.38 24.14 380.94 24.37 382.5 C24.43 382.85 24.55 383.01
							 24.9 383.09 C26.25 383.43 27.52 383.97 28.7 384.69 C28.92 384.82 29.07 384.82 29.28 384.66 C30.62 383.69
							 31.96 382.73 33.31 381.77 C33.95 381.31 34.35 381.34 34.9 381.89 C35.53 382.51 36.16 383.14 36.79 383.77
							 C37.4 384.39 37.44 384.76 36.94 385.45 C35.98 386.79 35.03 388.12 34.07 389.45 C33.93 389.64 33.89 389.77
							 34.03 389.99 C34.78 391.22 35.32 392.54 35.67 393.95 C35.73 394.21 35.87 394.29 36.1 394.33 C37.65 394.58
							 39.2 394.85 40.75 395.08 C41.3 395.16 41.74 395.34 42.03 395.83 C42.03 397.06 42.03 398.29 42.03 399.52
							 C41.84 400 41.48 400.23 40.97 400.31 C39.37 400.55 37.77 400.83 36.16 401.09 C35.89 401.13 35.74 401.21
							 35.67 401.51 C35.32 402.9 34.78 404.21 34.03 405.43 C33.9 405.64 33.92 405.78 34.06 405.97 C35.05 407.33
							 36.03 408.7 37 410.07 C37.4 410.63 37.36 411.08 36.88 411.57 C36.22 412.23 35.57 412.88 34.91 413.54
							 C34.35 414.09 33.95 414.13 33.32 413.67 C31.97 412.71 30.63 411.75 29.29 410.77 C29.08 410.62 28.94
							 410.61 28.71 410.74 C27.49 411.49 26.18 412.02 24.79 412.37 C24.54 412.44 24.44 412.55 24.4 412.8 C24.15
							 414.36 23.88 415.93 23.64 417.49 C23.56 418.02 23.38 418.45 22.9 418.73 ZM32.32 397.72 A11.306 11.3061
							 -180 1 0 9.71 397.72 A11.306 11.3061 -180 1 0 32.32 397.72 Z" class="st9"/>
			</g>
		</g>
		<g id="shape13-52" transform="translate(14.4232,-307.095)">
			<title>Sheet.13</title>
			<desc>Section 16: For the availability of computerised systems supp...</desc>
			<rect x="0" y="325.757" width="246.047" height="92.9726" class="st15"/>
			<text x="4" y="327.84" class="st16">Section 16<tspan class="st17">: For the availability of computerised systems </tspan><tspan
						x="4" dy="1.26em" class="st17">supporting critical processes, provisions should be made to </tspan><tspan
						x="4" dy="1.2em" class="st17">ensure continuity </tspan><tspan class="st17">of support for those processes in the </tspan><tspan
						x="4" dy="1.2em" class="st17">event of a system breakdown (e.g. a manual or alternative </tspan><tspan
						x="4" dy="1.2em" class="st17">system). The time required to bring the alternative </tspan><tspan x="4"
						dy="1.2em" class="st17">arrangements into use should be based on risk and </tspan><tspan x="4" dy="1.2em"
						class="st17">appropriate for a particular system and the business </tspan><tspan x="4" dy="1.2em"
						class="st17">process it supports. These arrangements should be </tspan><tspan x="4" dy="1.2em" class="st17">adequately documented </tspan><tspan
						class="st17">and tested. </tspan></text>		</g>
		<g id="shape32-66" transform="translate(11.7303,-25.0028)">
			<title>Sheet.32</title>
			<desc>Describing procedures to ensure compliance with, among others...</desc>
			<rect x="0" y="325.757" width="246.047" height="92.9726" class="st15"/>
			<text x="4" y="339.84" class="st16">Describing procedures to ensure compliance <tspan x="4" dy="1.2em" class="st12">with, among others, section 11: </tspan><tspan
						class="st17">Computerised </tspan><tspan x="4" dy="1.26em" class="st17">systems should be periodically evaluated to confirm that </tspan><tspan
						x="4" dy="1.2em" class="st17">they remain in a valid  state and are compliant with GMP. </tspan><tspan
						x="4" dy="1.2em" class="st17">Such evaluations should include, where appropriate, the </tspan><tspan x="4"
						dy="1.2em" class="st17">current range of functionality, deviation records, incidents, </tspan><tspan x="4"
						dy="1.2em" class="st17">problems, upgrade history, performance, reliability, </tspan><tspan x="4"
						dy="1.2em" class="st17">security and validation status reports.</tspan></text>		</g>
	</g>
</svg>
